<?xml version="1.0" encoding="utf-8"?>
<!-- Generator: Adobe Illustrator 25.4.1, SVG Export Plug-In . SVG Version: 6.00 Build 0)  -->
<svg version="1.1" id="Capa_1" xmlns="http://www.w3.org/2000/svg" xmlns:xlink="http://www.w3.org/1999/xlink" x="0px" y="0px"
	 viewBox="0 0 1460.7 837.9" style="enable-background:new 0 0 1460.7 837.9;" xml:space="preserve">
<style type="text/css">
	.st0{fill:#253D47;}
	.st1{fill:#E6442F;}
	.st2{fill:#931B14;}
	.st3{fill:#ABB2B8;}
	.st4{fill:#FFE859;}
	.st5{fill:#395B65;}
	.st6{fill:#5D747D;}
</style>
<rect x="986.6" y="530.4" class="st0" width="28.7" height="60.9"/>
<polygon class="st0" points="569.7,660.6 485.8,691.5 489.1,720.6 683.4,660.6 "/>
<polygon class="st0" points="910.7,660.6 994.5,691.5 991.2,720.6 796.9,660.6 "/>
<path class="st0" d="M1020,611.2c-58.8,0-106.6,47.7-106.6,106.5c0,58.8,47.7,106.6,106.6,106.6c58.8,0,106.5-47.7,106.5-106.6
	C1126.6,658.9,1078.9,611.2,1020,611.2z"/>
<path class="st0" d="M294.4,611.2c-58.8,0-106.6,47.7-106.6,106.5c0,58.8,47.7,106.6,106.6,106.6c58.8,0,106.5-47.7,106.5-106.6
	C400.9,658.9,353.2,611.2,294.4,611.2z"/>
<rect x="959.6" y="577.7" class="st0" width="325.5" height="167.2"/>
<rect class="st1" width="973.3" height="604.6"/>
<path class="st2" d="M944,575.5H29.3c-1.2,0-2.2-1-2.2-2.2V31.2c0-1.2,1-2.1,2.2-2.1H944c1.2,0,2.1,1,2.1,2.1v542.2
	C946.1,574.6,945.2,575.5,944,575.5z M31.4,571.2h910.4V33.3H31.4V571.2z"/>
<rect x="82.2" y="604.6" class="st3" width="891" height="67.3"/>
<rect x="456.6" y="704.2" class="st3" width="303.6" height="40.7"/>
<rect x="748.5" y="650.2" class="st3" width="11.6" height="94.7"/>
<polygon class="st3" points="82.2,660.6 35.7,715.8 39,744.9 119.6,660.6 "/>
<path class="st1" d="M1459.4,454.9c-3-31.9-13.7-47.1-73.8-152.1c-60.1-104.9-98.9-109.5-132.3-120.2
	c-26.7-8.5-189.2-16.5-253.6-19.4v441.5c212.6-0.7,237.2-7.9,237.2,79.9c120.2,0,222.5,0,222.5,0S1462.4,486.8,1459.4,454.9z"/>
<path class="st4" d="M1415.6,626.3h44.5c0.1-7.8,0.2-16.1,0.2-24.7h-44.7V626.3z"/>
<path class="st2" d="M1427.5,670h-168.1c-1.2,0-2.2-1-2.2-2.1c0-75.7,0-89.4-230.1-89.4c-1.2,0-2.2-1-2.2-2.1v-360
	c0-24.1,11.9-36.4,35.5-36.4c67.1,0.1,155.2,11.4,183.4,15.8c36.8,5.7,63.5,9.8,120.3,109.1c56.4,98.6,62.5,117.9,65.3,147.8
	c2.8,29.7,0.1,207.6,0,215.2C1429.6,669,1428.6,670,1427.5,670z M1261.5,665.7h163.8c0.3-20.6,2.6-184.9,0-212.6
	c-2.8-29.3-8.8-48.3-64.8-146.1c-55.8-97.6-80.3-101.3-117.3-107c-28.2-4.3-116-15.6-182.7-15.7c-21.1,0-31.3,10.5-31.3,32.1v357.8
	C1253,574.2,1261.4,587.5,1261.5,665.7z"/>
<path class="st5" d="M1346.1,316.5c-27.4-63.1-48.3-79.1-65-92.8c-16.7-13.7-167.7-28.5-196.2-28.5c-28.5,0-28.5,28.5-28.5,28.5
	v103.4c0,31.9,23.6,37.3,23.6,37.3l222.1,82.1h101.9C1403.8,446.5,1373.4,379.6,1346.1,316.5z"/>
<path class="st0" d="M1281,223.7c-2.2-1.8-6.8-3.6-13.1-5.4l12.7,166.9l-211.9-26.9c5.7,4.8,11.1,6.1,11.1,6.1l222.1,82.1h4.1
	C1306,446.5,1288.5,229.7,1281,223.7z"/>
<path class="st0" d="M1403.8,451.1h-101.9l-1.6-0.3l-221.9-82.1c-3.4-1-26.7-8.8-26.7-41.6V223.7c0-11.4,6.9-33.1,33.1-33.1
	c23.1,0,180.3,14.1,199.1,29.6l1.3,1.1c16.9,13.8,37.9,30.9,65,93.4c27,62.4,57.5,129.3,57.8,130c0.6,1.4,0.5,3.1-0.3,4.4
	C1406.8,450.3,1405.4,451.1,1403.8,451.1z M1302.8,441.9h94c-8.3-18.3-32.7-72.5-54.9-123.7c-26.2-60.4-46.3-76.8-62.4-90l-1.3-1.1
	c-14.4-11.8-160.1-27.5-193.3-27.5c-23.7,0-23.9,23-23.9,24v103.4c0,27.7,19.2,32.6,20,32.8l0.6,0.2L1302.8,441.9z"/>
<path class="st0" d="M1370.4,373.2c0,12.7-10.3,23.1-23.1,23.1c-12.7,0-23.1-10.3-23.1-23.1v-74.5c0-12.7,10.3-23.1,23.1-23.1
	c12.7,0,23.1,10.3,23.1,23.1V373.2z"/>
<path class="st3" d="M1193.8,731.3c0,48-38.9,86.9-86.9,86.9c-48,0-86.9-38.9-86.9-86.9c0-48,38.9-86.9,86.9-86.9
	C1154.9,644.4,1193.8,683.3,1193.8,731.3z"/>
<path class="st0" d="M1106.9,624.8c-58.8,0-106.6,47.7-106.6,106.5c0,58.9,47.7,106.5,106.6,106.5c58.8,0,106.6-47.7,106.6-106.5
	C1213.4,672.5,1165.7,624.8,1106.9,624.8z M1106.9,808.4c-42.5,0-77-34.5-77-77c0-42.5,34.5-77,77-77c42.5,0,77,34.5,77,77
	C1183.9,773.9,1149.4,808.4,1106.9,808.4z"/>
<path class="st0" d="M1106.9,680.8c-27.9,0-50.5,22.6-50.5,50.5c0,27.9,22.6,50.5,50.5,50.5s50.5-22.6,50.5-50.5
	C1157.4,703.4,1134.8,680.8,1106.9,680.8z M1106.9,761.5c-16.7,0-30.2-13.5-30.2-30.2c0-16.7,13.5-30.2,30.2-30.2
	s30.2,13.5,30.2,30.2C1137.1,748,1123.6,761.5,1106.9,761.5z"/>
<path class="st3" d="M1224.1,731.3h-24.9c0-50.9-41.4-92.3-92.3-92.3s-92.3,41.4-92.3,92.3h-24.9c0-64.6,52.6-117.2,117.2-117.2
	C1171.5,614.1,1224.1,666.7,1224.1,731.3z"/>
<rect x="1236.1" y="684.6" class="st0" width="223.2" height="91.4"/>
<path class="st2" d="M1118.8,448.7H1068c-7.6,0-13.8-6.2-13.8-13.7c0-7.6,6.2-13.7,13.8-13.7h50.8c7.6,0,13.7,6.2,13.7,13.7
	C1132.5,442.5,1126.3,448.7,1118.8,448.7z M1068,425.5c-5.2,0-9.4,4.2-9.4,9.4c0,5.2,4.2,9.4,9.4,9.4h50.8c5.2,0,9.4-4.2,9.4-9.4
	c0-5.2-4.2-9.4-9.4-9.4H1068z"/>
<path class="st2" d="M915.1,81.7H58.2c-1.2,0-2.1-1-2.1-2.1c0-1.2,1-2.2,2.1-2.2h856.9c1.2,0,2.1,1,2.1,2.2
	C917.2,80.7,916.2,81.7,915.1,81.7z"/>
<path class="st2" d="M915.1,131.2H58.2c-1.2,0-2.1-1-2.1-2.1c0-1.2,1-2.1,2.1-2.1h856.9c1.2,0,2.1,1,2.1,2.1
	C917.2,130.2,916.2,131.2,915.1,131.2z"/>
<path class="st2" d="M915.1,180.7H58.2c-1.2,0-2.1-1-2.1-2.1c0-1.2,1-2.1,2.1-2.1h856.9c1.2,0,2.1,1,2.1,2.1
	C917.2,179.7,916.2,180.7,915.1,180.7z"/>
<path class="st2" d="M915.1,230.2H58.2c-1.2,0-2.1-1-2.1-2.1c0-1.2,1-2.1,2.1-2.1h856.9c1.2,0,2.1,1,2.1,2.1
	C917.2,229.2,916.2,230.2,915.1,230.2z"/>
<path class="st2" d="M915.1,279.7H58.2c-1.2,0-2.1-1-2.1-2.1c0-1.2,1-2.2,2.1-2.2h856.9c1.2,0,2.1,1,2.1,2.2
	C917.2,278.7,916.2,279.7,915.1,279.7z"/>
<path class="st2" d="M915.1,329.2H58.2c-1.2,0-2.1-1-2.1-2.1c0-1.2,1-2.2,2.1-2.2h856.9c1.2,0,2.1,1,2.1,2.2
	C917.2,328.2,916.2,329.2,915.1,329.2z"/>
<path class="st2" d="M915.1,378.7H58.2c-1.2,0-2.1-1-2.1-2.1c0-1.2,1-2.2,2.1-2.2h856.9c1.2,0,2.1,1,2.1,2.2
	C917.2,377.7,916.2,378.7,915.1,378.7z"/>
<path class="st2" d="M915.1,428.2H58.2c-1.2,0-2.1-1-2.1-2.1c0-1.2,1-2.2,2.1-2.2h856.9c1.2,0,2.1,1,2.1,2.2
	C917.2,427.2,916.2,428.2,915.1,428.2z"/>
<path class="st2" d="M915.1,477.6H58.2c-1.2,0-2.1-1-2.1-2.1s1-2.2,2.1-2.2h856.9c1.2,0,2.1,1,2.1,2.2S916.2,477.6,915.1,477.6z"/>
<path class="st2" d="M915.1,527.1H58.2c-1.2,0-2.1-1-2.1-2.1c0-1.2,1-2.2,2.1-2.2h856.9c1.2,0,2.1,1,2.1,2.2
	C917.2,526.2,916.2,527.1,915.1,527.1z"/>
<rect y="544.4" class="st4" width="20.4" height="40.9"/>
<rect y="522.9" class="st4" width="20.4" height="10.8"/>
<rect x="25.7" y="678.5" class="st0" width="19.9" height="74.7"/>
<rect y="604.6" class="st0" width="983.4" height="20.2"/>
<path class="st3" d="M478.1,731.3c0,48-38.9,86.9-86.9,86.9s-86.9-38.9-86.9-86.9c0-48,38.9-86.9,86.9-86.9S478.1,683.3,478.1,731.3
	z"/>
<path class="st0" d="M391.3,624.8c-58.8,0-106.6,47.7-106.6,106.5c0,58.9,47.7,106.5,106.6,106.5c58.8,0,106.6-47.7,106.6-106.5
	C497.8,672.5,450.1,624.8,391.3,624.8z M391.3,808.4c-42.5,0-77-34.5-77-77c0-42.5,34.5-77,77-77c42.5,0,77,34.5,77,77
	C468.3,773.9,433.8,808.4,391.3,808.4z"/>
<path class="st0" d="M391.3,680.8c-27.9,0-50.5,22.6-50.5,50.5c0,27.9,22.6,50.5,50.5,50.5c27.9,0,50.5-22.6,50.5-50.5
	C441.8,703.4,419.1,680.8,391.3,680.8z M391.3,761.5c-16.7,0-30.2-13.5-30.2-30.2c0-16.7,13.5-30.2,30.2-30.2
	c16.7,0,30.2,13.5,30.2,30.2C421.5,748,407.9,761.5,391.3,761.5z"/>
<path class="st3" d="M508.4,731.3h-24.9c0-50.9-41.4-92.3-92.3-92.3c-50.9,0-92.3,41.4-92.3,92.3h-24.9
	c0-64.6,52.6-117.2,117.2-117.2C455.9,614.1,508.4,666.7,508.4,731.3z"/>
<path class="st6" d="M1104.6,298.1c-0.6,0-1.1-0.2-1.5-0.6c-0.8-0.8-0.8-2.2,0-3l61.7-61.7c0.8-0.8,2.2-0.8,3,0
	c0.8,0.8,0.8,2.2,0,3.1l-61.6,61.6L1104.6,298.1z"/>
<path class="st6" d="M1142.2,337.7c-0.6,0-1.1-0.2-1.5-0.6c-0.8-0.8-0.8-2.2,0-3l80.3-80.3c0.8-0.8,2.2-0.8,3,0c0.8,0.8,0.8,2.2,0,3
	l-80.3,80.3L1142.2,337.7z"/>
<path class="st6" d="M1097,345.5l-1.5-0.6c-0.8-0.8-0.8-2.2,0-3l117.9-117.9c0.8-0.8,2.2-0.8,3,0c0.8,0.8,0.8,2.2,0,3l-117.9,117.9
	C1098.1,345.3,1097.6,345.5,1097,345.5z"/>
<path class="st6" d="M1164,359.5c-0.5,0-1.1-0.2-1.5-0.6c-0.8-0.8-0.8-2.2,0-3l87.3-87.3c0.8-0.8,2.2-0.8,3,0c0.8,0.8,0.8,2.2,0,3.1
	l-87.3,87.3L1164,359.5z"/>
</svg>
