<?xml version="1.0" encoding="utf-8"?>
<!-- Generator: Adobe Illustrator 25.4.1, SVG Export Plug-In . SVG Version: 6.00 Build 0)  -->
<svg version="1.1" id="Layer_1" xmlns="http://www.w3.org/2000/svg" xmlns:xlink="http://www.w3.org/1999/xlink" x="0px" y="0px"
	 viewBox="0 0 108.1 36.3" style="enable-background:new 0 0 108.1 36.3;" xml:space="preserve">
<style type="text/css">
	.st0{fill:#4A4A4A;}
	.st1{fill:#E64430;}
	.st2{fill:#C02026;}
	.st3{fill:#272D47;}
	.st4{fill:#D52227;}
	.st5{fill:#91211D;}
	.st6{fill:#AAB2B8;}
	.st7{fill:#F68C2A;}
	.st8{fill:#010101;}
	.st9{fill:#A91E22;}
	.st10{fill:#303030;}
	.st11{fill:#EE2424;}
	.st12{fill:#272626;}
	.st13{fill:#6D6E6E;}
	.st14{fill:#9E9E9E;}
	.st15{fill:#A92023;}
	.st16{fill:#88221B;}
	.st17{fill:#FFCE04;}
	.st18{fill:#F15E58;}
</style>
<g>
	<g>
		<rect x="29.1" y="27.1" class="st0" width="11" height="1.3"/>
		<rect x="58.5" y="27.1" class="st0" width="11" height="1.3"/>
		<rect x="88.1" y="27.1" class="st0" width="11" height="1.3"/>
	</g>
	<path class="st1" d="M0.5,28.5H0.3c-0.2,0-0.3,0.2-0.3,0.3V32c0,0.2,0.2,0.3,0.3,0.3h0.2V28.5z"/>
	<rect x="18.2" y="13.6" class="st2" width="2.5" height="15.5"/>
	<rect x="18.6" y="18.4" class="st1" width="2.5" height="10.7"/>
	<path class="st3" d="M7.3,17.4c-0.1,0.1-0.1,0.1-0.2,0.1H7l-0.8-0.6L3,18.3l-1.3-1.9l0.4-2l2.2,1.2l0.1-0.2l-1.1-0.9
		c-0.1-0.1-0.1-0.2,0-0.3c0.1-0.1,0.2-0.1,0.3,0l3.6,3C7.3,17.3,7.3,17.5,7.3,17.4z"/>
	<path class="st4" d="M1.7,23.7H1.1c-0.4,0-0.7,0.3-0.7,0.7v7.9c0,0.4,0.3,0.7,0.7,0.7h0.6V23.7z"/>
	<path class="st5" d="M19.1,6.5H5.6c-4.2,4.4-4.8,12.4-4.8,18.6v3.3h18.6V6.8C19.4,6.7,19.3,6.5,19.1,6.5z M14.8,8.9v5.9H7.2
		c-0.5,0-1,0.3-1.2,0.8c-0.3,0.5-0.7,0.8-1.2,0.8H2.1c0.4-2.7,1.1-5.3,2.3-7.5H14.8L14.8,8.9z"/>
	<rect x="19.5" y="27.7" class="st6" width="87.3" height="5.3"/>
	<g>
		<path class="st7" d="M19,9.5c0,0,0-0.1-0.1-0.1h-3.4c0,0-0.1,0-0.1,0.1c0,0,0,0.1,0.1,0.1h3.4C19,9.6,19,9.5,19,9.5z"/>
		<path class="st7" d="M19,10.1c0,0,0-0.1-0.1-0.1h-3.4c0,0-0.1,0-0.1,0.1c0,0,0,0.1,0.1,0.1h3.4C19,10.2,19,10.2,19,10.1z"/>
		<path class="st7" d="M19,10.8c0,0,0-0.1-0.1-0.1h-3.4c0,0-0.1,0-0.1,0.1c0,0,0,0.1,0.1,0.1h3.4C19,10.9,19,10.8,19,10.8z"/>
		<path class="st7" d="M19,11.4c0,0,0-0.1-0.1-0.1h-3.4l-0.1,0.1c0,0,0,0.1,0.1,0.1h3.4C19,11.5,19,11.4,19,11.4z"/>
		<path class="st7" d="M19,12.1c0,0,0-0.1-0.1-0.1h-3.4c0,0-0.1,0-0.1,0.1c0,0,0,0.1,0.1,0.1h3.4C19,12.2,19,12.1,19,12.1z"/>
		<path class="st7" d="M19,12.7c0,0,0-0.1-0.1-0.1h-3.4c0,0-0.1,0-0.1,0.1c0,0,0,0.1,0.1,0.1h3.4C19,12.8,19,12.8,19,12.7z"/>
		<path class="st7" d="M19,13.4c0,0,0-0.1-0.1-0.1h-3.4c0,0-0.1,0-0.1,0.1c0,0,0,0.1,0.1,0.1h3.4C19,13.5,19,13.4,19,13.4z"/>
		<path class="st7" d="M19,14.1c0,0,0-0.1-0.1-0.1h-3.4c0,0-0.1,0-0.1,0.1c0,0,0,0.1,0.1,0.1h3.4C19,14.2,19,14.1,19,14.1z"/>
	</g>
	<g>
		<path class="st7" d="M11.4,20.1V20H9.1v0.1c0,0.3,0.2,0.5,0.5,0.5h1.3C11.1,20.6,11.4,20.4,11.4,20.1z"/>
		<path class="st8" d="M8.9,20.2v0.1h2.5v-0.1c0-0.3-0.2-0.5-0.5-0.5H9.5C9.2,19.7,9,20,8.9,20.2z"/>
	</g>
	<rect x="23.2" y="0" class="st1" width="81.7" height="26.2"/>
	<rect x="24.3" y="0.7" class="st9" width="79.5" height="24.8"/>
	<rect x="23.2" y="26.3" class="st10" width="81.7" height="0.9"/>
	<rect x="106.7" y="27.7" class="st8" width="0.8" height="2.9"/>
	<rect x="107.5" y="27.7" class="st11" width="0.6" height="2.9"/>
	<path class="st1" d="M0.9,33c0,0.3,0.3,0.6,0.6,0.6h42.2v-5.2H0.9C0.9,28.4,0.9,33,0.9,33z"/>
	<path class="st8" d="M6.7,33.6c-0.2-0.6-0.3-1.2-0.3-1.8c0-2.8,2.1-5,4.8-5c2.7,0,4.8,2.2,4.8,5c0,0.7-0.1,1.2-0.3,1.8H6.7z"/>
	<g>
		<circle class="st8" cx="11.2" cy="32" r="4.4"/>
		<circle class="st12" cx="11.2" cy="32" r="4.4"/>
		<circle class="st12" cx="11.2" cy="32" r="4.4"/>
		<g>
			<path class="st8" d="M11.2,27.8c0.1,0,0.1,0.3,0.1,0.8c0,0.4-0.1,0.8-0.1,0.8c-0.1,0-0.1-0.3-0.1-0.8
				C11.1,28.2,11.1,27.8,11.2,27.8z"/>
			<path class="st8" d="M11.2,34.5c0.1,0,0.1,0.3,0.1,0.8c0,0.4-0.1,0.8-0.1,0.8c-0.1,0-0.1-0.3-0.1-0.8S11.1,34.5,11.2,34.5z"/>
			<path class="st8" d="M14.5,31.9c0.4,0,0.8,0,0.8,0.1s-0.4,0.1-0.8,0.1S13.7,32,13.7,32C13.7,31.9,14.1,31.9,14.5,31.9z"/>
			<path class="st8" d="M7.9,32.1c-0.4,0-0.8,0-0.8-0.1c0-0.1,0.3-0.1,0.8-0.1c0.4,0,0.8,0.1,0.8,0.1S8.3,32,7.9,32.1z"/>
			<path class="st8" d="M13.5,29.5c0.3-0.3,0.6-0.5,0.6-0.5s-0.2,0.3-0.6,0.7c-0.3,0.3-0.6,0.5-0.6,0.5S13.2,29.9,13.5,29.5z"/>
			<path class="st8" d="M8.9,34.3c-0.3,0.3-0.6,0.5-0.6,0.5C8.2,34.8,8.5,34.5,8.9,34.3c0.2-0.4,0.5-0.6,0.5-0.6
				C9.4,33.8,9.2,34,8.9,34.3z"/>
			<path class="st8" d="M13.5,34.2c0.3,0.3,0.5,0.6,0.5,0.6C14,34.9,13.7,34.6,13.5,34.2c-0.4-0.2-0.6-0.5-0.6-0.5
				C13,33.7,13.3,33.9,13.5,34.2z"/>
			<path class="st8" d="M8.8,29.7c-0.3-0.3-0.5-0.6-0.5-0.6c0-0.1,0.3,0.2,0.6,0.5c0.3,0.3,0.5,0.6,0.5,0.6S9.1,30,8.8,29.7z"/>
			<path class="st8" d="M12.1,29.6c0,0,0.1-0.4,0.3-0.8c0.2-0.4,0.4-0.7,0.4-0.7s-0.1,0.4-0.3,0.8C12.4,29.3,12.2,29.7,12.1,29.6z"
				/>
			<path class="st8" d="M10.2,34.3c0,0-0.1,0.4-0.3,0.8c-0.2,0.4-0.4,0.7-0.4,0.7s0.1-0.4,0.3-0.8C10,34.6,10.2,34.3,10.2,34.3z"/>
			<path class="st8" d="M15,33.6c0,0-0.4-0.1-0.8-0.3c-0.4-0.2-0.7-0.4-0.7-0.4s0.4,0.1,0.8,0.3S15,33.5,15,33.6z"/>
			<path class="st8" d="M7.4,30.3c0,0,0.4,0.1,0.8,0.3C8.6,30.8,8.9,31,8.9,31s-0.4-0.1-0.8-0.3C7.6,30.5,7.3,30.4,7.4,30.3z"/>
			<path class="st8" d="M14.2,30.6c0.4-0.1,0.8-0.2,0.8-0.2c0.1,0.1-0.3,0.3-0.7,0.4S13.5,31,13.5,31S13.8,30.8,14.2,30.6z"/>
			<path class="st8" d="M8.1,33.3c-0.4,0.1-0.8,0.2-0.8,0.2c-0.1-0.1,0.3-0.2,0.7-0.4c0.4-0.1,0.8-0.2,0.8-0.2
				C8.9,32.9,8.5,33.2,8.1,33.3z"/>
			<path class="st8" d="M12.5,35c0.1,0.4,0.2,0.8,0.2,0.8c-0.1,0.1-0.2-0.3-0.4-0.7c-0.1-0.4-0.2-0.8-0.2-0.8S12.3,34.6,12.5,35z"/>
			<path class="st8" d="M10,28.8c0.1,0.4,0.2,0.8,0.2,0.8c-0.1,0.1-0.2-0.3-0.4-0.7c-0.1-0.4-0.2-0.8-0.2-0.8S9.8,28.4,10,28.8z"/>
			<path class="st8" d="M11.7,29.5c0,0,0-0.3,0.1-0.8c0.1-0.4,0.2-0.8,0.2-0.8s0,0.3-0.1,0.8C11.8,29.1,11.7,29.5,11.7,29.5z"/>
			<path class="st8" d="M10.7,34.4c0,0,0,0.3-0.1,0.8c-0.1,0.4-0.2,0.8-0.2,0.8s0-0.3,0.1-0.8C10.6,34.8,10.7,34.4,10.7,34.4z"/>
			<path class="st8" d="M15.3,32.7c0,0-0.3,0-0.8-0.1c-0.4-0.1-0.8-0.2-0.8-0.2s0.3,0,0.8,0.1C14.9,32.6,15.3,32.7,15.3,32.7z"/>
			<path class="st8" d="M7.1,31.2c0,0,0.3,0,0.8,0.1c0.4,0.1,0.8,0.2,0.8,0.2s-0.3,0-0.8-0.1S7.1,31.2,7.1,31.2z"/>
			<path class="st8" d="M13.8,30c0.4-0.3,0.7-0.4,0.7-0.4c0.1,0-0.2,0.2-0.6,0.5c-0.4,0.3-0.7,0.4-0.7,0.4S13.5,30.3,13.8,30z"/>
			<path class="st8" d="M8.5,33.9c-0.4,0.3-0.7,0.4-0.7,0.4C7.7,34.3,8,34.1,8.5,33.9c0.3-0.4,0.6-0.5,0.6-0.5S8.8,33.6,8.5,33.9z"
				/>
			<path class="st8" d="M13.1,34.6c0.3,0.4,0.4,0.7,0.4,0.7c0,0.1-0.2-0.2-0.5-0.6S12.6,34,12.6,34S12.8,34.3,13.1,34.6z"/>
			<path class="st8" d="M9.3,29.3c-0.3-0.4-0.4-0.7-0.4-0.7c0-0.1,0.2,0.2,0.5,0.6c0.3,0.4,0.4,0.7,0.4,0.7
				C9.7,29.9,9.5,29.6,9.3,29.3z"/>
			<path class="st8" d="M13,29.2c0.2-0.4,0.5-0.7,0.5-0.7S13.4,28.8,13,29.2c-0.1,0.4-0.4,0.7-0.4,0.7C12.5,29.8,12.7,29.5,13,29.2z
				"/>
			<path class="st8" d="M9.4,34.7c-0.2,0.4-0.5,0.7-0.5,0.7S9,35.1,9.4,34.7C9.5,34.3,9.8,34,9.8,34C9.8,34.1,9.6,34.4,9.4,34.7z"/>
			<path class="st8" d="M14.7,34.3c0,0-0.3-0.1-0.7-0.4c-0.4-0.2-0.7-0.5-0.7-0.5s0.3,0.1,0.7,0.4C14.4,34,14.7,34.2,14.7,34.3z"/>
			<path class="st8" d="M7.6,29.7c0,0,0.3,0.1,0.7,0.4C8.7,30.3,9,30.6,9,30.6s-0.3-0.1-0.7-0.4C8,29.9,7.7,29.7,7.6,29.7z"/>
			<path class="st8" d="M14.4,31.3c0.4-0.1,0.8-0.1,0.8-0.1s-0.3,0.1-0.8,0.2c-0.4,0.1-0.8,0.1-0.8,0.1C13.6,31.4,14,31.3,14.4,31.3
				z"/>
			<path class="st8" d="M7.9,32.6c-0.4,0.1-0.8,0.1-0.8,0.1s0.3-0.1,0.8-0.2c0.4-0.1,0.8-0.1,0.8-0.1C8.7,32.5,8.4,32.6,7.9,32.6z"
				/>
			<path class="st8" d="M11.9,35.2C12,35.6,12,36,12,36S11.9,35.6,11.9,35.2c-0.2-0.4-0.2-0.8-0.2-0.8S11.8,34.8,11.9,35.2z"/>
			<path class="st8" d="M10.5,28.7c-0.1-0.4-0.1-0.8-0.1-0.8S10.5,28.2,10.5,28.7c0.2,0.4,0.2,0.8,0.2,0.8
				C10.6,29.5,10.5,29.1,10.5,28.7z"/>
		</g>
		<path class="st13" d="M11.1,29.2c-1.6,0-2.8,1.3-2.8,2.8c0,1.6,1.3,2.8,2.8,2.8c1.6,0,2.8-1.3,2.8-2.8
			C13.9,30.4,12.7,29.2,11.1,29.2z"/>
		<path class="st14" d="M11.2,29.7c-1.3,0-2.3,1-2.3,2.3s1,2.3,2.3,2.3s2.3-1,2.3-2.3S12.4,29.6,11.2,29.7z"/>
		<circle class="st0" cx="11.2" cy="32" r="1.9"/>
		<circle class="st13" cx="11.2" cy="32" r="1.6"/>
		<path class="st14" d="M11.1,30.7c-0.7,0-1.3,0.6-1.3,1.3s0.6,1.3,1.3,1.3c0.7,0,1.3-0.6,1.3-1.3S11.9,30.7,11.1,30.7z"/>
	</g>
	<g>
		<path class="st8" d="M44.5,27.6c-2.5,0-4.4,1.9-4.4,4.4s2,4.4,4.4,4.4c2.5,0,4.4-2,4.4-4.4S47,27.6,44.5,27.6z"/>
		<path class="st12" d="M44.5,27.6c-2.5,0-4.4,1.9-4.4,4.4s2,4.4,4.4,4.4c2.5,0,4.4-2,4.4-4.4S47,27.6,44.5,27.6z"/>
		<path class="st12" d="M44.5,27.6c-2.5,0-4.4,1.9-4.4,4.4s2,4.4,4.4,4.4c2.5,0,4.4-2,4.4-4.4S47,27.6,44.5,27.6z"/>
		<g>
			<path class="st8" d="M44.6,27.8c0.1,0,0.1,0.3,0.1,0.8c0,0.4-0.1,0.8-0.1,0.8c-0.1,0-0.1-0.3-0.1-0.8
				C44.5,28.2,44.6,27.8,44.6,27.8z"/>
			<path class="st8" d="M44.6,34.5c0.1,0,0.1,0.3,0.1,0.8c0,0.4-0.1,0.8-0.1,0.8c-0.1,0-0.1-0.3-0.1-0.8S44.6,34.5,44.6,34.5z"/>
			<path class="st8" d="M47.9,31.9c0.4,0,0.8,0,0.8,0.1s-0.3,0.1-0.8,0.1c-0.4,0-0.8-0.1-0.8-0.1C47.1,31.9,47.5,31.9,47.9,31.9z"/>
			<path class="st8" d="M41.3,32c-0.5,0-0.8,0.1-0.8,0c0-0.1,0.3-0.1,0.8-0.1c0.4,0,0.8,0.1,0.8,0.1S41.7,32,41.3,32z"/>
			<path class="st8" d="M46.9,29.6c0.3-0.3,0.5-0.5,0.6-0.5s-0.2,0.3-0.5,0.6s-0.6,0.5-0.6,0.5C46.3,30.2,46.6,29.9,46.9,29.6z"/>
			<path class="st8" d="M42.3,34.3c-0.3,0.3-0.6,0.5-0.6,0.5C41.6,34.8,41.9,34.5,42.3,34.3c0.2-0.4,0.5-0.6,0.5-0.6
				C42.9,33.8,42.6,34,42.3,34.3z"/>
			<ellipse transform="matrix(0.7071 -0.7071 0.7071 0.7071 -10.5058 43.3057)" class="st8" cx="47" cy="34.3" rx="0.1" ry="0.8"/>
			<path class="st8" d="M42.2,29.7c-0.3-0.3-0.5-0.6-0.5-0.6c0-0.1,0.3,0.2,0.6,0.5c0.3,0.3,0.5,0.6,0.5,0.6S42.5,30,42.2,29.7z"/>
			<path class="st8" d="M45.6,29.6c0,0,0.1-0.4,0.3-0.8c0.2-0.4,0.4-0.7,0.4-0.7s-0.1,0.4-0.3,0.8S45.6,29.7,45.6,29.6z"/>
			<path class="st8" d="M43.6,34.3c0,0-0.1,0.4-0.3,0.8c-0.2,0.4-0.4,0.7-0.4,0.7s0.1-0.4,0.3-0.8C43.4,34.6,43.6,34.3,43.6,34.3z"
				/>
			<path class="st8" d="M48.4,33.6c0,0-0.4-0.1-0.8-0.3s-0.7-0.4-0.7-0.4s0.4,0.1,0.8,0.3S48.5,33.5,48.4,33.6z"/>
			<path class="st8" d="M40.8,30.3c0,0,0.4,0.1,0.8,0.3c0.4,0.2,0.7,0.4,0.7,0.4s-0.4-0.1-0.8-0.3S40.7,30.4,40.8,30.3z"/>
			<path class="st8" d="M47.6,30.6c0.4-0.1,0.8-0.2,0.8-0.2c0.1,0.1-0.3,0.2-0.7,0.4c-0.4,0.1-0.8,0.2-0.8,0.2S47.2,30.8,47.6,30.6z
				"/>
			<path class="st8" d="M41.6,33.3c-0.4,0.1-0.8,0.2-0.8,0.2c-0.1-0.1,0.3-0.2,0.7-0.4c0.4-0.1,0.8-0.2,0.8-0.2S42,33.2,41.6,33.3z"
				/>
			<path class="st8" d="M45.9,35c0.1,0.4,0.2,0.8,0.2,0.8c-0.1,0.1-0.2-0.3-0.4-0.7c-0.1-0.4-0.2-0.8-0.2-0.8
				C45.6,34.3,45.7,34.6,45.9,35z"/>
			<path class="st8" d="M43.4,28.8c0.1,0.4,0.2,0.8,0.2,0.8c-0.1,0.1-0.2-0.3-0.4-0.7c-0.1-0.4-0.2-0.8-0.2-0.8
				C43.1,28.1,43.2,28.4,43.4,28.8z"/>
			<path class="st8" d="M45.1,29.5c0,0,0-0.3,0.1-0.8c0.1-0.4,0.2-0.8,0.2-0.8s0,0.3-0.1,0.8C45.2,29.1,45.1,29.5,45.1,29.5z"/>
			<path class="st8" d="M44.1,34.4c0,0,0,0.3-0.1,0.8c-0.1,0.4-0.2,0.8-0.2,0.8s0-0.3,0.1-0.8C44,34.8,44.1,34.4,44.1,34.4z"/>
			<path class="st8" d="M48.7,32.7c0,0-0.3,0-0.8-0.1c-0.4-0.1-0.8-0.2-0.8-0.2s0.3,0,0.8,0.1C48.3,32.6,48.7,32.7,48.7,32.7z"/>
			<path class="st8" d="M40.5,31.2c0,0,0.3,0,0.8,0.1c0.4,0.1,0.8,0.2,0.8,0.2s-0.3,0-0.8-0.1S40.5,31.2,40.5,31.2z"/>
			<path class="st8" d="M47.3,30c0.4-0.3,0.7-0.4,0.7-0.4c0.1,0-0.2,0.2-0.6,0.5s-0.7,0.4-0.7,0.4S46.9,30.3,47.3,30z"/>
			<path class="st8" d="M41.9,33.9c-0.4,0.3-0.7,0.4-0.7,0.4C41.1,34.3,41.4,34.1,41.9,33.9c0.3-0.4,0.6-0.5,0.6-0.5
				S42.3,33.6,41.9,33.9z"/>
			<path class="st8" d="M46.5,34.6c0.3,0.4,0.4,0.7,0.4,0.7c0,0.1-0.2-0.2-0.5-0.6C46.1,34.3,46,34,46,34S46.3,34.3,46.5,34.6z"/>
			<path class="st8" d="M42.7,29.3c-0.3-0.4-0.4-0.7-0.4-0.7c0-0.1,0.2,0.2,0.5,0.6c0.3,0.4,0.4,0.7,0.4,0.7S42.9,29.6,42.7,29.3z"
				/>
			<path class="st8" d="M46.4,29.2c0.2-0.4,0.5-0.7,0.5-0.7S46.8,28.8,46.4,29.2c-0.1,0.4-0.4,0.7-0.4,0.7
				C46,29.8,46.1,29.5,46.4,29.2z"/>
			<path class="st8" d="M42.8,34.7c-0.2,0.4-0.5,0.7-0.5,0.7S42.4,35.1,42.8,34.7c0.1-0.4,0.4-0.7,0.4-0.7
				C43.2,34.1,43.1,34.4,42.8,34.7z"/>
			<path class="st8" d="M48.1,34.3c0,0-0.3-0.1-0.7-0.4c-0.4-0.2-0.7-0.5-0.7-0.5s0.3,0.1,0.7,0.4C47.8,34,48.1,34.2,48.1,34.3z"/>
			<path class="st8" d="M41.1,29.7c0,0,0.3,0.1,0.7,0.4c0.4,0.2,0.7,0.5,0.7,0.5s-0.3-0.1-0.7-0.4C41.4,29.9,41.1,29.7,41.1,29.7z"
				/>
			<path class="st8" d="M47.9,31.3c0.4-0.1,0.8-0.1,0.8-0.1s-0.3,0.1-0.8,0.2c-0.4,0.1-0.8,0.1-0.8,0.1
				C47.1,31.4,47.5,31.4,47.9,31.3z"/>
			<path class="st8" d="M41.3,32.6c-0.4,0.1-0.8,0.1-0.8,0.1s0.3-0.1,0.8-0.2c0.4-0.1,0.8-0.1,0.8-0.1
				C42.1,32.5,41.8,32.6,41.3,32.6z"/>
			<path class="st8" d="M45.3,35.2c0.1,0.4,0.1,0.8,0.1,0.8s-0.1-0.3-0.2-0.8c-0.1-0.4-0.1-0.8-0.1-0.8S45.2,34.8,45.3,35.2z"/>
			<path class="st8" d="M43.9,28.7c-0.1-0.4-0.1-0.8-0.1-0.8S43.9,28.2,43.9,28.7c0.2,0.4,0.2,0.8,0.2,0.8S44,29.1,43.9,28.7z"/>
		</g>
		<path class="st13" d="M44.6,29.2c-1.6,0-2.8,1.3-2.8,2.8c0,1.6,1.3,2.8,2.8,2.8c1.6,0,2.8-1.3,2.8-2.8
			C47.4,30.4,46.1,29.2,44.6,29.2z"/>
		<path class="st14" d="M44.6,29.7c-1.3,0-2.3,1-2.3,2.3s1,2.3,2.3,2.3c1.3,0,2.3-1,2.3-2.3S45.9,29.6,44.6,29.7z"/>
		<path class="st0" d="M44.6,30.1c-1.1,0-1.9,0.9-1.9,1.9c0,1.1,0.9,1.9,1.9,1.9c1.1,0,1.9-0.9,1.9-1.9
			C46.5,30.9,45.6,30.1,44.6,30.1z"/>
		<path class="st13" d="M44.6,30.4c-0.9,0-1.6,0.7-1.6,1.6s0.7,1.6,1.6,1.6c0.9,0,1.6-0.7,1.6-1.6C46.2,31.1,45.5,30.3,44.6,30.4z"
			/>
		<path class="st14" d="M44.6,30.7c-0.7,0-1.3,0.6-1.3,1.3s0.6,1.3,1.3,1.3c0.7,0,1.3-0.6,1.3-1.3S45.3,30.7,44.6,30.7z"/>
	</g>
	<g>
		<path class="st8" d="M35.1,27.6c-2.5,0-4.4,1.9-4.4,4.4s2,4.4,4.4,4.4c2.5,0,4.4-2,4.4-4.4S37.5,27.6,35.1,27.6z"/>
		<path class="st12" d="M35.1,27.6c-2.5,0-4.4,1.9-4.4,4.4s2,4.4,4.4,4.4c2.5,0,4.4-2,4.4-4.4S37.5,27.6,35.1,27.6z"/>
		<path class="st12" d="M35.1,27.6c-2.5,0-4.4,1.9-4.4,4.4s2,4.4,4.4,4.4c2.5,0,4.4-2,4.4-4.4S37.5,27.6,35.1,27.6z"/>
		<g>
			<path class="st8" d="M35.2,27.8c0.1,0,0.1,0.3,0.1,0.8c0,0.4-0.1,0.8-0.1,0.8c-0.1,0-0.1-0.3-0.1-0.8
				C35.1,28.2,35.1,27.8,35.2,27.8z"/>
			<path class="st8" d="M35.2,34.5c0.1,0,0.1,0.3,0.1,0.8c0,0.4-0.1,0.8-0.1,0.8c-0.1,0-0.1-0.3-0.1-0.8S35.1,34.5,35.2,34.5z"/>
			<path class="st8" d="M38.5,31.9c0.4,0,0.8,0,0.8,0.1s-0.3,0.1-0.8,0.1c-0.4,0-0.8-0.1-0.8-0.1C37.7,31.9,38,31.9,38.5,31.9z"/>
			<path class="st8" d="M31.8,32c-0.5,0-0.8,0.1-0.8,0c0-0.1,0.3-0.1,0.8-0.1c0.4,0,0.8,0.1,0.8,0.1S32.3,32,31.8,32z"/>
			<path class="st8" d="M37.5,29.5c0.3-0.3,0.6-0.5,0.6-0.5s-0.2,0.3-0.6,0.7c-0.3,0.3-0.6,0.5-0.6,0.5S37.1,29.9,37.5,29.5z"/>
			<path class="st8" d="M32.9,34.3c-0.3,0.3-0.6,0.5-0.6,0.5C32.2,34.8,32.5,34.5,32.9,34.3c0.2-0.4,0.5-0.6,0.5-0.6
				C33.4,33.8,33.2,34,32.9,34.3z"/>
			<path class="st8" d="M37.5,34.2c0.3,0.3,0.5,0.6,0.5,0.6C38,34.9,37.7,34.6,37.5,34.2c-0.4-0.2-0.6-0.5-0.6-0.5
				S37.2,33.9,37.5,34.2z"/>
			<path class="st8" d="M32.8,29.7c-0.3-0.3-0.5-0.6-0.5-0.6c0-0.1,0.3,0.2,0.6,0.5c0.3,0.3,0.5,0.6,0.5,0.6
				C33.3,30.2,33.1,30,32.8,29.7z"/>
			<path class="st8" d="M36.1,29.6c0,0,0.1-0.4,0.3-0.8c0.2-0.4,0.4-0.7,0.4-0.7s-0.1,0.4-0.3,0.8C36.3,29.3,36.2,29.7,36.1,29.6z"
				/>
			<path class="st8" d="M34.2,34.3c0,0-0.1,0.4-0.3,0.8c-0.2,0.4-0.4,0.7-0.4,0.7s0.1-0.4,0.3-0.8C34,34.6,34.1,34.3,34.2,34.3z"/>
			<path class="st8" d="M38.9,33.6c0,0-0.4-0.1-0.8-0.3c-0.4-0.2-0.7-0.4-0.7-0.4s0.4,0.1,0.8,0.3C38.7,33.4,39,33.5,38.9,33.6z"/>
			<path class="st8" d="M31.3,30.3c0,0,0.4,0.1,0.8,0.3c0.4,0.2,0.7,0.4,0.7,0.4s-0.4-0.1-0.8-0.3C31.6,30.5,31.3,30.4,31.3,30.3z"
				/>
			<path class="st8" d="M38.2,30.6c0.4-0.1,0.8-0.2,0.8-0.2c0.1,0.1-0.3,0.2-0.7,0.4c-0.4,0.1-0.8,0.2-0.8,0.2S37.8,30.8,38.2,30.6z
				"/>
			<path class="st8" d="M32.1,33.3c-0.4,0.1-0.8,0.2-0.8,0.2c-0.1-0.1,0.3-0.2,0.7-0.4c0.4-0.1,0.8-0.2,0.8-0.2S32.5,33.2,32.1,33.3
				z"/>
			<path class="st8" d="M36.5,35c0.1,0.4,0.2,0.8,0.2,0.8c-0.1,0.1-0.2-0.3-0.4-0.7c-0.1-0.4-0.2-0.8-0.2-0.8S36.3,34.6,36.5,35z"/>
			<path class="st8" d="M34,28.8c0.1,0.4,0.2,0.8,0.2,0.8c-0.1,0.1-0.2-0.3-0.4-0.7c-0.1-0.4-0.2-0.8-0.2-0.8S33.8,28.4,34,28.8z"/>
			<path class="st8" d="M35.6,29.5c0,0,0-0.3,0.1-0.8c0.1-0.4,0.2-0.8,0.2-0.8s0,0.3-0.1,0.8C35.8,29.1,35.7,29.5,35.6,29.5z"/>
			<path class="st8" d="M34.6,34.4c0,0,0,0.3-0.1,0.8c-0.1,0.4-0.2,0.8-0.2,0.8s0-0.3,0.1-0.8C34.5,34.8,34.6,34.4,34.6,34.4z"/>
			<path class="st8" d="M39.2,32.7c0,0-0.3,0-0.8-0.1c-0.4-0.1-0.8-0.2-0.8-0.2s0.3,0,0.8,0.1S39.3,32.7,39.2,32.7z"/>
			<path class="st8" d="M31,31.2c0,0,0.3,0,0.8,0.1c0.4,0.1,0.8,0.2,0.8,0.2s-0.3,0-0.8-0.1C31.4,31.3,31,31.2,31,31.2z"/>
			<path class="st8" d="M37.8,30c0.4-0.3,0.7-0.4,0.7-0.4c0.1,0-0.2,0.2-0.6,0.5c-0.4,0.3-0.7,0.4-0.7,0.4S37.5,30.3,37.8,30z"/>
			<path class="st8" d="M32.5,33.9c-0.4,0.3-0.7,0.4-0.7,0.4C31.7,34.3,32,34.1,32.5,33.9c0.3-0.4,0.6-0.5,0.6-0.5
				S32.8,33.6,32.5,33.9z"/>
			<path class="st8" d="M37.1,34.6c0.3,0.4,0.4,0.7,0.4,0.7c0,0.1-0.2-0.2-0.5-0.6S36.6,34,36.6,34S36.8,34.3,37.1,34.6z"/>
			<path class="st8" d="M33.2,29.3c-0.3-0.4-0.4-0.7-0.4-0.7c0-0.1,0.2,0.2,0.5,0.6c0.3,0.4,0.4,0.7,0.4,0.7S33.5,29.6,33.2,29.3z"
				/>
			<path class="st8" d="M36.9,29.2c0.2-0.4,0.5-0.7,0.5-0.7S37.3,28.8,36.9,29.2c-0.1,0.4-0.4,0.7-0.4,0.7
				C36.5,29.8,36.7,29.5,36.9,29.2z"/>
			<path class="st8" d="M33.3,34.7c-0.2,0.4-0.5,0.7-0.5,0.7S32.9,35.1,33.3,34.7c0.1-0.4,0.4-0.7,0.4-0.7
				C33.8,34.1,33.6,34.4,33.3,34.7z"/>
			<path class="st8" d="M38.7,34.3c0,0-0.3-0.1-0.7-0.4c-0.4-0.2-0.7-0.5-0.7-0.5s0.3,0.1,0.7,0.4C38.3,34,38.6,34.2,38.7,34.3z"/>
			<path class="st8" d="M31.6,29.7c0,0,0.3,0.1,0.7,0.4c0.4,0.2,0.7,0.5,0.7,0.5s-0.3-0.1-0.7-0.4C31.9,29.9,31.7,29.7,31.6,29.7z"
				/>
			<path class="st8" d="M38.4,31.3c0.4-0.1,0.8-0.1,0.8-0.1s-0.3,0.1-0.8,0.2c-0.4,0.1-0.8,0.1-0.8,0.1C37.6,31.4,38,31.3,38.4,31.3
				z"/>
			<path class="st8" d="M31.9,32.6c-0.4,0.1-0.8,0.1-0.8,0.1s0.3-0.1,0.8-0.2c0.4-0.1,0.8-0.1,0.8-0.1
				C32.7,32.5,32.3,32.6,31.9,32.6z"/>
			<path class="st8" d="M35.8,35.2c0.1,0.4,0.1,0.8,0.1,0.8S35.8,35.7,35.8,35.2c-0.2-0.4-0.2-0.8-0.2-0.8
				C35.7,34.4,35.8,34.8,35.8,35.2z"/>
			<path class="st8" d="M34.5,28.7c-0.1-0.4-0.1-0.8-0.1-0.8S34.5,28.2,34.5,28.7c0.2,0.4,0.2,0.8,0.2,0.8
				C34.6,29.5,34.5,29.1,34.5,28.7z"/>
		</g>
		<path class="st13" d="M35.1,29.2c-1.6,0-2.8,1.3-2.8,2.8c0,1.6,1.3,2.8,2.8,2.8c1.6,0,2.8-1.3,2.8-2.8
			C37.9,30.4,36.7,29.2,35.1,29.2z"/>
		<path class="st14" d="M35.2,29.7c-1.3,0-2.3,1-2.3,2.3s1,2.3,2.3,2.3s2.3-1,2.3-2.3S36.4,29.6,35.2,29.7z"/>
		<path class="st0" d="M35.1,30.1c-1.1,0-1.9,0.9-1.9,1.9c0,1.1,0.9,1.9,1.9,1.9c1.1,0,1.9-0.9,1.9-1.9C37,30.9,36.2,30.1,35.1,30.1
			z"/>
		<path class="st13" d="M35.2,30.4c-0.9,0-1.6,0.7-1.6,1.6s0.7,1.6,1.6,1.6s1.6-0.7,1.6-1.6C36.8,31.1,36,30.3,35.2,30.4z"/>
		<path class="st14" d="M35.1,30.7c-0.7,0-1.3,0.6-1.3,1.3s0.6,1.3,1.3,1.3c0.7,0,1.3-0.6,1.3-1.3S35.8,30.7,35.1,30.7z"/>
	</g>
	<g>
		<circle class="st8" cx="78.4" cy="32" r="4.4"/>
		<circle class="st12" cx="78.4" cy="32" r="4.4"/>
		<circle class="st12" cx="78.4" cy="32" r="4.4"/>
		<g>
			<path class="st8" d="M78.4,27.8c0.1,0,0.1,0.3,0.1,0.8c0,0.4-0.1,0.8-0.1,0.8c-0.1,0-0.1-0.3-0.1-0.8
				C78.3,28.2,78.3,27.8,78.4,27.8z"/>
			<path class="st8" d="M78.4,34.5c0.1,0,0.1,0.3,0.1,0.8c0,0.4-0.1,0.8-0.1,0.8c-0.1,0-0.1-0.3-0.1-0.8S78.3,34.5,78.4,34.5z"/>
			<path class="st8" d="M81.7,31.9c0.4,0,0.8,0,0.8,0.1s-0.3,0.1-0.8,0.1c-0.4,0-0.8-0.1-0.8-0.1C80.9,31.9,81.2,31.9,81.7,31.9z"/>
			<path class="st8" d="M75,32c-0.4,0-0.7,0.1-0.7,0c0-0.1,0.4-0.1,0.8-0.1c0.4,0,0.8,0.1,0.8,0.1S75.4,32,75,32z"/>
			<path class="st8" d="M80.7,29.5c0.3-0.3,0.6-0.5,0.6-0.5s-0.2,0.3-0.6,0.7c-0.3,0.3-0.6,0.5-0.6,0.5S80.4,29.9,80.7,29.5z"/>
			<path class="st8" d="M76.1,34.4c-0.3,0.3-0.6,0.5-0.6,0.5c0,0,0.2-0.3,0.5-0.6c0.3-0.3,0.6-0.5,0.6-0.5S76.4,34.1,76.1,34.4z"/>
			<path class="st8" d="M80.7,34.2c0.3,0.3,0.5,0.6,0.5,0.6c0,0.1-0.3-0.2-0.6-0.5c-0.3-0.3-0.5-0.6-0.5-0.6
				C80.2,33.7,80.5,33.9,80.7,34.2z"/>
			<path class="st8" d="M76,29.7c-0.3-0.3-0.5-0.5-0.5-0.6s0.3,0.2,0.6,0.5c0.3,0.3,0.5,0.6,0.5,0.6S76.3,30,76,29.7z"/>
			<path class="st8" d="M79.3,29.6c0,0,0.1-0.4,0.3-0.8c0.2-0.4,0.4-0.7,0.4-0.7s-0.1,0.4-0.3,0.8C79.6,29.3,79.4,29.7,79.3,29.6z"
				/>
			<path class="st8" d="M77.4,34.3c0,0-0.1,0.4-0.3,0.8c-0.2,0.4-0.4,0.7-0.4,0.7s0.1-0.4,0.3-0.8C77.2,34.6,77.3,34.3,77.4,34.3z"
				/>
			<path class="st8" d="M82.2,33.6c0,0-0.4-0.1-0.8-0.3s-0.7-0.4-0.7-0.4s0.4,0.1,0.8,0.3S82.2,33.5,82.2,33.6z"/>
			<path class="st8" d="M74.6,30.3c0,0,0.4,0.1,0.8,0.3c0.4,0.2,0.7,0.4,0.7,0.4c-0.1,0-0.4-0.1-0.8-0.3
				C74.8,30.5,74.5,30.4,74.6,30.3z"/>
			<path class="st8" d="M81.4,30.6c0.4-0.1,0.7-0.3,0.8-0.2s-0.3,0.2-0.7,0.4c-0.4,0.1-0.8,0.2-0.8,0.2S81,30.8,81.4,30.6z"/>
			<path class="st8" d="M75.3,33.3c-0.4,0.1-0.8,0.2-0.8,0.2c-0.1-0.1,0.3-0.3,0.7-0.4c0.4-0.1,0.8-0.2,0.8-0.2
				C76.1,32.9,75.7,33.1,75.3,33.3z"/>
			<path class="st8" d="M79.7,35c0.1,0.4,0.2,0.8,0.2,0.8c-0.1,0.1-0.2-0.3-0.4-0.7c-0.1-0.4-0.2-0.8-0.2-0.8S79.5,34.6,79.7,35z"/>
			<path class="st8" d="M77.2,28.8c0.1,0.4,0.2,0.8,0.2,0.8c-0.1,0.1-0.2-0.3-0.4-0.7c-0.1-0.4-0.2-0.8-0.2-0.8S77,28.4,77.2,28.8z"
				/>
			<path class="st8" d="M78.9,29.5c0,0,0-0.3,0.1-0.8c0.1-0.4,0.2-0.8,0.2-0.8s0,0.3-0.1,0.8C79,29.1,78.9,29.5,78.9,29.5z"/>
			<path class="st8" d="M77.9,34.4c0,0,0,0.3-0.1,0.8c-0.1,0.4-0.2,0.8-0.2,0.8s0-0.3,0.1-0.8C77.8,34.8,77.9,34.4,77.9,34.4z"/>
			<path class="st8" d="M82.5,32.7c0,0-0.3,0-0.8-0.1c-0.4-0.1-0.8-0.2-0.8-0.2s0.3,0,0.8,0.1C82.1,32.6,82.5,32.7,82.5,32.7z"/>
			<path class="st8" d="M74.3,31.2c0,0,0.3,0,0.8,0.1c0.4,0.1,0.8,0.2,0.8,0.2s-0.3,0-0.8-0.1S74.3,31.2,74.3,31.2z"/>
			<path class="st8" d="M81,30c0.4-0.3,0.7-0.4,0.7-0.4c0.1,0-0.2,0.2-0.6,0.5s-0.7,0.4-0.7,0.4S80.7,30.3,81,30z"/>
			<path class="st8" d="M75.7,33.9c-0.4,0.3-0.7,0.4-0.7,0.4c-0.1,0,0.2-0.2,0.6-0.5c0.4-0.3,0.7-0.4,0.7-0.4S76,33.6,75.7,33.9z"/>
			<path class="st8" d="M80.3,34.6c0.3,0.4,0.4,0.7,0.4,0.7c0,0.1-0.2-0.2-0.5-0.6c-0.3-0.4-0.4-0.7-0.4-0.7S80,34.3,80.3,34.6z"/>
			<path class="st8" d="M76.5,29.3c-0.3-0.4-0.4-0.7-0.4-0.7c0-0.1,0.2,0.2,0.5,0.6c0.3,0.4,0.4,0.7,0.4,0.7
				C76.9,29.9,76.7,29.6,76.5,29.3z"/>
			<path class="st8" d="M80.2,29.2c0.2-0.4,0.5-0.7,0.5-0.7S80.6,28.8,80.2,29.2c-0.1,0.4-0.4,0.7-0.4,0.7
				C79.7,29.8,80,29.6,80.2,29.2z"/>
			<path class="st8" d="M76.6,34.7c-0.2,0.4-0.5,0.7-0.5,0.7S76.2,35.1,76.6,34.7C76.7,34.3,77,34,77,34
				C77,34.1,76.8,34.3,76.6,34.7z"/>
			<path class="st8" d="M81.9,34.3c0,0-0.3-0.1-0.7-0.4c-0.4-0.2-0.7-0.5-0.7-0.5s0.3,0.1,0.7,0.4C81.6,34,81.9,34.2,81.9,34.3z"/>
			<path class="st8" d="M74.8,29.7c0,0,0.3,0.1,0.7,0.4c0.4,0.2,0.7,0.5,0.7,0.5s-0.3-0.1-0.7-0.4C75.2,29.9,74.9,29.7,74.8,29.7z"
				/>
			<path class="st8" d="M81.6,31.3c0.4-0.1,0.8-0.1,0.8-0.1s-0.3,0.1-0.8,0.2c-0.4,0.1-0.8,0.1-0.8,0.1
				C80.8,31.4,81.2,31.4,81.6,31.3z"/>
			<path class="st8" d="M75.1,32.6c-0.4,0.1-0.8,0.1-0.8,0.1s0.3-0.1,0.8-0.2c0.4-0.1,0.8-0.1,0.8-0.1
				C75.9,32.5,75.6,32.6,75.1,32.6z"/>
			<path class="st8" d="M79.1,35.2c0.1,0.4,0.1,0.8,0.1,0.8S79.1,35.7,79.1,35.2c-0.2-0.4-0.2-0.8-0.2-0.8S79,34.8,79.1,35.2z"/>
			<path class="st8" d="M77.7,28.7c-0.1-0.4-0.1-0.8-0.1-0.8s0.1,0.3,0.2,0.8c0.1,0.4,0.1,0.8,0.1,0.8
				C77.8,29.5,77.7,29.1,77.7,28.7z"/>
		</g>
		<circle class="st13" cx="78.4" cy="32" r="2.8"/>
		<path class="st14" d="M78.4,29.7c-1.3,0-2.3,1-2.3,2.3s1,2.3,2.3,2.3c1.3,0,2.3-1,2.3-2.3S79.6,29.6,78.4,29.7z"/>
		<circle class="st0" cx="78.4" cy="32" r="1.9"/>
		<circle class="st13" cx="78.4" cy="32" r="1.6"/>
		<path class="st14" d="M78.3,30.7c-0.7,0-1.3,0.6-1.3,1.3s0.6,1.3,1.3,1.3c0.7,0,1.3-0.6,1.3-1.3S79.1,30.7,78.3,30.7z"/>
	</g>
	<g>
		<circle class="st8" cx="88" cy="32" r="4.4"/>
		<circle class="st12" cx="88" cy="32" r="4.4"/>
		<circle class="st12" cx="88" cy="32" r="4.4"/>
		<g>
			<path class="st8" d="M88,27.8c0.1,0,0.1,0.3,0.1,0.8c0,0.4-0.1,0.8-0.1,0.8c-0.1,0-0.1-0.3-0.1-0.8C87.9,28.2,88,27.8,88,27.8z"
				/>
			<path class="st8" d="M88,34.5c0.1,0,0.1,0.3,0.1,0.8c0,0.4-0.1,0.8-0.1,0.8c-0.1,0-0.1-0.3-0.1-0.8S88,34.5,88,34.5z"/>
			<path class="st8" d="M91.3,31.9c0.4,0,0.8,0,0.8,0.1s-0.3,0.1-0.8,0.1c-0.4,0-0.8-0.1-0.8-0.1C90.5,31.9,90.9,31.9,91.3,31.9z"/>
			<path class="st8" d="M84.7,32c-0.5,0-0.8,0.1-0.8,0c0-0.1,0.3-0.1,0.8-0.1c0.4,0,0.8,0.1,0.8,0.1S85.1,32,84.7,32z"/>
			<path class="st8" d="M90.3,29.6c0.3-0.3,0.6-0.5,0.6-0.5c0.1,0-0.2,0.3-0.5,0.6s-0.6,0.5-0.6,0.5S90,29.9,90.3,29.6z"/>
			<ellipse transform="matrix(0.7071 -0.7071 0.7071 0.7071 0.8279 70.6705)" class="st8" cx="85.7" cy="34.3" rx="0.8" ry="0.1"/>
			<path class="st8" d="M90.4,34.2c0.3,0.3,0.5,0.6,0.5,0.6C90.9,34.9,90.6,34.6,90.4,34.2c-0.4-0.2-0.6-0.5-0.6-0.5
				S90.1,33.9,90.4,34.2z"/>
			<path class="st8" d="M85.6,29.6c-0.3-0.3-0.5-0.6-0.5-0.6s0.3,0.2,0.6,0.6c0.3,0.3,0.5,0.6,0.5,0.6S85.9,30,85.6,29.6z"/>
			<path class="st8" d="M89,29.6c0,0,0.1-0.4,0.3-0.8c0.2-0.4,0.4-0.7,0.4-0.7s-0.1,0.4-0.3,0.8S89,29.7,89,29.6z"/>
			<path class="st8" d="M87.1,34.3c0,0-0.1,0.4-0.3,0.8s-0.4,0.7-0.4,0.7s0.1-0.4,0.3-0.8C86.8,34.6,87,34.3,87.1,34.3z"/>
			<path class="st8" d="M91.8,33.6c0,0-0.4-0.1-0.8-0.3s-0.7-0.4-0.7-0.4s0.4,0.1,0.8,0.3C91.6,33.4,91.9,33.5,91.8,33.6z"/>
			<path class="st8" d="M84.2,30.3c0,0,0.4,0.1,0.8,0.3c0.4,0.2,0.7,0.4,0.7,0.4s-0.4-0.1-0.8-0.3S84.2,30.4,84.2,30.3z"/>
			<path class="st8" d="M91,30.6c0.4-0.1,0.8-0.2,0.8-0.2c0.1,0.1-0.3,0.2-0.7,0.4c-0.4,0.1-0.8,0.2-0.8,0.2S90.7,30.8,91,30.6z"/>
			<path class="st8" d="M85,33.3c-0.4,0.1-0.7,0.3-0.8,0.2s0.3-0.2,0.7-0.4c0.4-0.1,0.8-0.2,0.8-0.2S85.4,33.2,85,33.3z"/>
			<path class="st8" d="M89.4,35c0.1,0.4,0.2,0.8,0.2,0.8c-0.1,0.1-0.2-0.3-0.4-0.7c-0.1-0.4-0.2-0.8-0.2-0.8S89.2,34.6,89.4,35z"/>
			<path class="st8" d="M86.9,28.8c0.1,0.4,0.2,0.8,0.2,0.8c-0.1,0.1-0.2-0.3-0.4-0.7c-0.1-0.4-0.2-0.8-0.2-0.8S86.7,28.4,86.9,28.8
				z"/>
			<path class="st8" d="M88.5,29.5c0,0,0-0.3,0.1-0.8c0.1-0.4,0.2-0.8,0.2-0.8s0,0.3-0.1,0.8C88.6,29.1,88.5,29.5,88.5,29.5z"/>
			<path class="st8" d="M87.5,34.4c0,0,0,0.3-0.1,0.8c-0.1,0.4-0.2,0.8-0.2,0.8s0-0.3,0.1-0.8C87.4,34.8,87.5,34.4,87.5,34.4z"/>
			<path class="st8" d="M92.1,32.7c0,0-0.3,0-0.8-0.1c-0.4-0.1-0.8-0.2-0.8-0.2s0.3,0,0.8,0.1S92.1,32.7,92.1,32.7z"/>
			<path class="st8" d="M83.9,31.2c0,0,0.3,0,0.8,0.1c0.4,0.1,0.8,0.2,0.8,0.2s-0.3,0-0.8-0.1C84.3,31.3,83.9,31.2,83.9,31.2z"/>
			<path class="st8" d="M90.7,30c0.4-0.3,0.7-0.4,0.7-0.4c0.1,0-0.2,0.2-0.6,0.5s-0.7,0.4-0.7,0.4S90.4,30.3,90.7,30z"/>
			<path class="st8" d="M85.3,33.9c-0.4,0.3-0.7,0.4-0.7,0.4c-0.1,0,0.2-0.2,0.6-0.5c0.4-0.3,0.7-0.4,0.7-0.4
				C86,33.4,85.7,33.6,85.3,33.9z"/>
			<path class="st8" d="M89.9,34.6c0.3,0.4,0.4,0.7,0.4,0.7c0,0.1-0.2-0.2-0.5-0.6c-0.3-0.4-0.4-0.7-0.4-0.7
				C89.5,34,89.7,34.3,89.9,34.6z"/>
			<path class="st8" d="M86.1,29.3c-0.3-0.4-0.4-0.7-0.4-0.7c0-0.1,0.2,0.2,0.5,0.6c0.3,0.4,0.4,0.7,0.4,0.7S86.3,29.6,86.1,29.3z"
				/>
			<path class="st8" d="M89.8,29.2c0.2-0.4,0.5-0.7,0.5-0.7S90.2,28.8,89.8,29.2c-0.1,0.4-0.4,0.7-0.4,0.7
				C89.4,29.8,89.6,29.5,89.8,29.2z"/>
			<path class="st8" d="M86.2,34.7c-0.2,0.4-0.5,0.7-0.5,0.7s0.1-0.3,0.4-0.7c0.2-0.4,0.5-0.7,0.5-0.7
				C86.7,34.1,86.4,34.3,86.2,34.7z"/>
			<path class="st8" d="M91.5,34.3c0,0-0.3-0.1-0.7-0.4c-0.4-0.2-0.7-0.5-0.7-0.5s0.3,0.1,0.7,0.4C91.2,34,91.5,34.2,91.5,34.3z"/>
			<path class="st8" d="M84.5,29.7c0,0,0.3,0.1,0.7,0.4c0.4,0.2,0.7,0.5,0.7,0.5s-0.3-0.1-0.7-0.4C84.8,29.9,84.5,29.7,84.5,29.7z"
				/>
			<path class="st8" d="M91.3,31.3c0.4-0.1,0.8-0.1,0.8-0.1s-0.3,0.1-0.8,0.2c-0.4,0.1-0.8,0.1-0.8,0.1
				C90.5,31.4,90.8,31.3,91.3,31.3z"/>
			<path class="st8" d="M84.8,32.6c-0.4,0.1-0.8,0.1-0.8,0.1s0.4-0.1,0.8-0.2s0.8-0.1,0.8-0.1C85.6,32.5,85.2,32.6,84.8,32.6z"/>
			<path class="st8" d="M88.7,35.2c0.1,0.4,0.1,0.8,0.1,0.8s-0.1-0.3-0.2-0.8c-0.1-0.4-0.1-0.8-0.1-0.8S88.6,34.8,88.7,35.2z"/>
			<path class="st8" d="M87.3,28.7c-0.1-0.4-0.1-0.8-0.1-0.8S87.3,28.2,87.3,28.7c0.2,0.4,0.2,0.8,0.2,0.8S87.4,29.1,87.3,28.7z"/>
		</g>
		<path class="st13" d="M88,29.2c-1.6,0-2.8,1.3-2.8,2.8c0,1.6,1.2,2.8,2.8,2.8s2.8-1.3,2.8-2.8C90.8,30.4,89.6,29.2,88,29.2z"/>
		<path class="st14" d="M88,29.7c-1.3,0-2.3,1-2.3,2.3s1,2.3,2.3,2.3c1.3,0,2.3-1,2.3-2.3S89.3,29.6,88,29.7z"/>
		<circle class="st0" cx="88" cy="32" r="1.9"/>
		<circle class="st13" cx="88" cy="32" r="1.6"/>
		<path class="st14" d="M88,30.7c-0.7,0-1.3,0.6-1.3,1.3s0.6,1.3,1.3,1.3c0.7,0,1.3-0.6,1.3-1.3S88.7,30.7,88,30.7z"/>
	</g>
	<rect x="93.2" y="30.3" class="st8" width="0.4" height="4.3"/>
	<path class="st1" d="M3.8,7.3C3.5,7.6,3.7,8.1,4.1,8.1h15.4V4.3h-12C5.3,4.3,3.8,7.3,3.8,7.3z"/>
	<g>
		<path class="st1" d="M12.4,25.1L12.4,25.1l0.1-16.2h-0.2v16c-3.8,0.6-5.9,2.4-6.8,5.9l0.2,0.1C6.6,27.4,8.7,25.7,12.4,25.1z"/>
	</g>
	<rect x="2.2" y="28.8" class="st15" width="3.5" height="3.5"/>
	<rect x="18.2" y="32.2" class="st11" width="2.5" height="0.6"/>
	<g>
		<path class="st16" d="M17.7,6.5c0.3,0,0.5,0.2,0.5,0.5S18,7.5,17.7,7.5S17.2,7.3,17.2,7S17.4,6.5,17.7,6.5z"/>
		<circle class="st16" cx="16.2" cy="7" r="0.5"/>
		<path class="st16" d="M14.7,6.5c0.3,0,0.5,0.2,0.5,0.5S15,7.5,14.7,7.5S14.2,7.3,14.2,7S14.5,6.5,14.7,6.5z"/>
	</g>
	<rect x="12.2" y="9" class="st1" width="0.6" height="6"/>
	<g>
		<rect x="25.6" y="26.5" class="st17" width="1.3" height="0.4"/>
		<rect x="48.7" y="26.5" class="st17" width="1.3" height="0.4"/>
		<rect x="71.8" y="26.5" class="st17" width="1.3" height="0.4"/>
		<rect x="94.8" y="26.5" class="st17" width="1.3" height="0.4"/>
	</g>
	<g>
		<rect x="25" y="0.6" class="st18" width="0.7" height="25.3"/>
		<rect x="26.4" y="0.6" class="st18" width="0.7" height="25.3"/>
		<rect x="27.8" y="0.6" class="st18" width="0.7" height="25.3"/>
		<rect x="29.2" y="0.6" class="st18" width="0.7" height="25.3"/>
		<rect x="30.6" y="0.6" class="st18" width="0.7" height="25.3"/>
		<rect x="32" y="0.6" class="st18" width="0.7" height="25.3"/>
		<rect x="33.5" y="0.6" class="st18" width="0.7" height="25.3"/>
		<rect x="34.9" y="0.6" class="st18" width="0.7" height="25.3"/>
		<rect x="36.3" y="0.6" class="st18" width="0.7" height="25.3"/>
		<rect x="37.7" y="0.6" class="st18" width="0.7" height="25.3"/>
		<rect x="39.1" y="0.6" class="st18" width="0.7" height="25.3"/>
		<rect x="40.5" y="0.6" class="st18" width="0.7" height="25.3"/>
		<rect x="41.9" y="0.6" class="st18" width="0.7" height="25.3"/>
		<rect x="43.3" y="0.6" class="st18" width="0.7" height="25.3"/>
		<rect x="44.7" y="0.6" class="st18" width="0.7" height="25.3"/>
		<rect x="46.1" y="0.6" class="st18" width="0.7" height="25.3"/>
		<rect x="47.5" y="0.6" class="st18" width="0.7" height="25.3"/>
		<rect x="49" y="0.6" class="st18" width="0.7" height="25.3"/>
		<rect x="50.4" y="0.6" class="st18" width="0.7" height="25.3"/>
		<rect x="51.8" y="0.6" class="st18" width="0.7" height="25.3"/>
		<rect x="53.2" y="0.6" class="st18" width="0.7" height="25.3"/>
		<rect x="54.6" y="0.6" class="st18" width="0.7" height="25.3"/>
		<rect x="56" y="0.6" class="st18" width="0.7" height="25.3"/>
		<rect x="57.4" y="0.6" class="st18" width="0.7" height="25.3"/>
		<rect x="58.8" y="0.6" class="st18" width="0.7" height="25.3"/>
		<rect x="60.2" y="0.6" class="st18" width="0.7" height="25.3"/>
		<rect x="61.6" y="0.6" class="st18" width="0.7" height="25.3"/>
		<rect x="63" y="0.6" class="st18" width="0.7" height="25.3"/>
		<rect x="64.5" y="0.6" class="st18" width="0.7" height="25.3"/>
		<rect x="65.9" y="0.6" class="st18" width="0.7" height="25.3"/>
		<rect x="67.3" y="0.6" class="st18" width="0.7" height="25.3"/>
		<rect x="68.7" y="0.6" class="st18" width="0.7" height="25.3"/>
		<rect x="70.1" y="0.6" class="st18" width="0.7" height="25.3"/>
		<rect x="71.5" y="0.6" class="st18" width="0.7" height="25.3"/>
		<rect x="72.9" y="0.6" class="st18" width="0.7" height="25.3"/>
		<rect x="74.3" y="0.6" class="st18" width="0.7" height="25.3"/>
		<rect x="75.7" y="0.6" class="st18" width="0.7" height="25.3"/>
		<rect x="77.1" y="0.6" class="st18" width="0.7" height="25.3"/>
		<rect x="78.5" y="0.6" class="st18" width="0.7" height="25.3"/>
		<rect x="80" y="0.6" class="st18" width="0.7" height="25.3"/>
		<rect x="81.4" y="0.6" class="st18" width="0.7" height="25.3"/>
		<rect x="82.8" y="0.6" class="st18" width="0.7" height="25.3"/>
		<rect x="84.2" y="0.6" class="st18" width="0.7" height="25.3"/>
		<rect x="85.6" y="0.6" class="st18" width="0.7" height="25.3"/>
		<rect x="87" y="0.6" class="st18" width="0.7" height="25.3"/>
		<rect x="88.4" y="0.6" class="st18" width="0.7" height="25.3"/>
		<rect x="89.8" y="0.6" class="st18" width="0.7" height="25.3"/>
		<rect x="91.2" y="0.6" class="st18" width="0.7" height="25.3"/>
		<rect x="92.6" y="0.6" class="st18" width="0.7" height="25.3"/>
		<rect x="94" y="0.6" class="st18" width="0.7" height="25.3"/>
		<rect x="95.5" y="0.6" class="st18" width="0.7" height="25.3"/>
		<rect x="96.9" y="0.6" class="st18" width="0.7" height="25.3"/>
		<rect x="98.3" y="0.6" class="st18" width="0.7" height="25.3"/>
		<rect x="99.7" y="0.6" class="st18" width="0.7" height="25.3"/>
		<rect x="101.1" y="0.6" class="st18" width="0.7" height="25.3"/>
		<rect x="102.5" y="0.6" class="st18" width="0.7" height="25.3"/>
	</g>
</g>
</svg>
